HIERARCHY
ROOT Hips
{
	OFFSET 0.000000 0.000000 0.000000
	CHANNELS 6 Xposition Yposition Zposition Xrotation Yrotation Zrotation
	JOINT LeftUpLeg_virtual
	{
		OFFSET 0.000000 0.000000 0.000000
		CHANNELS 3 Xrotation Yrotation Zrotation
		JOINT LeftUpLeg
		{
			OFFSET 11.394100 -6.187798 -0.413800
			CHANNELS 3 Xrotation Yrotation Zrotation
			JOINT LeftLeg
			{
				OFFSET 0.430247 -32.302673 3.732800
				CHANNELS 3 Xrotation Yrotation Zrotation
				JOINT LeftFoot
				{
					OFFSET -0.430247 -48.264931 -6.423300
					CHANNELS 3 Xrotation Yrotation Zrotation
					JOINT LeftToeBase
					{
						OFFSET 4.230900 -16.068199 23.438400
						CHANNELS 3 Xrotation Yrotation Zrotation
						JOINT LeftToe_End
						{
							OFFSET 4.510700 0.695400 19.974600
							CHANNELS 3 Xrotation Yrotation Zrotation
							End Site
							{
								OFFSET 0 0 0
							}
						}
					}
				}
			}
		}
	}
	JOINT RightUpLeg_virtual
	{
		OFFSET 0.000000 0.000000 0.000000
		CHANNELS 3 Xrotation Yrotation Zrotation
		JOINT RightUpLeg
		{
			OFFSET -11.333700 -6.187798 -0.413800
			CHANNELS 3 Xrotation Yrotation Zrotation
			JOINT RightLeg
			{
				OFFSET -0.430392 -32.302628 3.733000
				CHANNELS 3 Xrotation Yrotation Zrotation
				JOINT RightFoot
				{
					OFFSET 0.430392 -48.264973 -6.423500
					CHANNELS 3 Xrotation Yrotation Zrotation
					JOINT RightToeBase
					{
						OFFSET -4.230900 -16.068199 23.438400
						CHANNELS 3 Xrotation Yrotation Zrotation
						JOINT RightToe_End
						{
							OFFSET -4.510700 0.695400 19.974600
							CHANNELS 3 Xrotation Yrotation Zrotation
							End Site
							{
								OFFSET 0 0 0
							}
						}
					}
				}
			}
		}
	}
	JOINT Spine_virtual
	{
		OFFSET 0.000000 0.000000 0.000000
		CHANNELS 3 Xrotation Yrotation Zrotation
		JOINT Spine
		{
			OFFSET -0.002400 12.777504 0.315300
			CHANNELS 3 Xrotation Yrotation Zrotation
			JOINT Spine1
			{
				OFFSET -0.002067 5.816869 0.032633
				CHANNELS 3 Xrotation Yrotation Zrotation
				JOINT Spine1_split
				{
					OFFSET -0.002067 5.816869 0.032633
					CHANNELS 3 Xrotation Yrotation Zrotation
					JOINT Spine2
					{
						OFFSET -0.002067 5.816869 0.032633
						CHANNELS 3 Xrotation Yrotation Zrotation
						JOINT Neck_virtual
						{
							OFFSET 0.000000 0.000000 0.000000
							CHANNELS 3 Xrotation Yrotation Zrotation
							JOINT Neck
							{
								OFFSET -0.003700 21.199493 -0.826900
								CHANNELS 3 Xrotation Yrotation Zrotation
								JOINT Head
								{
									OFFSET 0.000000 20.442200 4.834800
									CHANNELS 3 Xrotation Yrotation Zrotation
									JOINT HeadTop_End
									{
										OFFSET 0.000000 34.668396 4.968400
										CHANNELS 3 Xrotation Yrotation Zrotation
										End Site
										{
											OFFSET 0 0 0
										}
									}
								}
							}
						}
						JOINT LeftShoulder_virtual
						{
							OFFSET 0.000000 0.000000 0.000000
							CHANNELS 3 Xrotation Yrotation Zrotation
							JOINT LeftShoulder
							{
								OFFSET 3.288150 8.794197 -1.372250
								CHANNELS 3 Xrotation Yrotation Zrotation
								JOINT LeftShoulder_split
								{
									OFFSET 3.288150 8.794197 -1.372250
									CHANNELS 3 Xrotation Yrotation Zrotation
									JOINT LeftArm
									{
										OFFSET 11.953299 -2.279007 -0.146200
										CHANNELS 3 Xrotation Yrotation Zrotation
										JOINT LeftForeArm
										{
											OFFSET 18.448900 0.000000 0.000000
											CHANNELS 3 Xrotation Yrotation Zrotation
											JOINT LeftHand
											{
												OFFSET 29.527798 0.000000 0.000000
												CHANNELS 3 Xrotation Yrotation Zrotation
												End Site
												{
													OFFSET 0 0 0
												}
											}
										}
									}
								}
							}
						}
						JOINT RightShoulder_virtual
						{
							OFFSET 0.000000 0.000000 0.000000
							CHANNELS 3 Xrotation Yrotation Zrotation
							JOINT RightShoulder
							{
								OFFSET -3.249400 8.794197 -1.372250
								CHANNELS 3 Xrotation Yrotation Zrotation
								JOINT RightShoulder_split
								{
									OFFSET -3.249400 8.794197 -1.372250
									CHANNELS 3 Xrotation Yrotation Zrotation
									JOINT RightArm
									{
										OFFSET -11.953299 -2.279007 -0.146200
										CHANNELS 3 Xrotation Yrotation Zrotation
										JOINT RightForeArm
										{
											OFFSET -18.448900 0.000000 0.000000
											CHANNELS 3 Xrotation Yrotation Zrotation
											JOINT RightHand
											{
												OFFSET -29.527802 0.000000 0.000000
												CHANNELS 3 Xrotation Yrotation Zrotation
												End Site
												{
													OFFSET 0 0 0
												}
											}
										}
									}
								}
							}
						}
					}
				}
			}
		}
	}
}
MOTION
Frames: 6
Frame Time: 0.03333333
-2.535689 98.628189 15.035990 0.000000 0.000000 0.000000 169.646285 -63.585264 166.439675 -10.690948 10.823172 18.258767 22.544057 21.420592 2.117128 -7.598368 3.963663 -20.543481 -7.154376 1.811144 -3.098712 0.000000 0.000000 0.000000 169.646285 -63.585264 166.439675 -25.868978 -14.703374 -16.232496 19.282952 -23.030127 2.564122 2.050087 -0.566820 9.059519 -1.537478 -9.590866 4.896413 0.000000 0.000000 0.000000 169.646285 -63.585264 166.439675 10.808754 -0.776741 0.030610 -2.437252 -1.524357 2.027954 0.000000 0.000000 0.000000 0.000000 0.000000 0.000000 -2.415244 -1.304876 2.142121 -4.588155 22.997102 6.180776 0.936806 25.563624 -6.313581 0.000000 0.000000 0.000000 -2.415244 -1.304876 2.142121 0.583881 2.751444 -9.555021 0.000000 0.000000 0.000000 -4.658414 -9.329892 -60.259235 6.619133 -15.153026 -6.926426 0.000000 0.000000 0.000000 -2.415244 -1.304876 2.142121 0.722513 1.588476 17.883392 0.000000 0.000000 0.000000 17.917265 24.858132 44.399163 15.165562 24.206993 -5.712824 0.000000 0.000000 0.000000 
-2.327111 98.320801 12.429691 0.000000 0.000000 0.000000 170.190924 -60.490184 167.324813 -8.199099 10.375050 18.817774 20.694587 23.277975 2.280569 -5.936831 5.831327 -22.755842 -7.172402 1.814691 -2.983424 0.000000 0.000000 0.000000 170.190924 -60.490184 167.324813 -28.415984 -18.735240 -15.438410 20.332257 -17.809710 1.931599 2.993591 0.270318 7.122169 -0.871122 -11.159890 6.053563 0.000000 0.000000 0.000000 170.190924 -60.490184 167.324813 10.604893 -1.105124 -0.199692 -2.398478 -2.056337 2.718428 0.000000 0.000000 0.000000 0.000000 0.000000 0.000000 -2.356987 -1.768259 2.869753 -3.888773 19.882588 3.910875 -0.526664 21.441463 -3.837596 0.000000 0.000000 0.000000 -2.356987 -1.768259 2.869753 0.705978 3.275474 -11.637322 0.000000 0.000000 0.000000 -4.210783 -8.950337 -59.610599 5.910704 -15.225812 -6.973998 0.000000 0.000000 0.000000 -2.356987 -1.768259 2.869753 0.703462 1.524161 16.490404 0.000000 0.000000 0.000000 17.133168 25.354777 44.976242 15.517520 24.279267 -5.951857 0.000000 0.000000 0.000000 
-2.080698 97.911743 9.481541 0.000000 0.000000 0.000000 170.981123 -57.066039 168.249061 -8.814606 9.452432 21.095632 24.173388 25.856651 2.444279 -2.078514 5.818684 -27.132571 -8.801172 1.105671 -1.740820 0.000000 0.000000 0.000000 170.981123 -57.066039 168.249061 -31.603596 -24.468133 -14.548813 22.853917 -10.950174 0.472042 1.760629 1.862396 5.074791 -0.484712 -10.324528 5.923318 0.000000 0.000000 0.000000 170.981123 -57.066039 168.249061 10.601780 -1.329483 -0.120427 -2.282223 -2.483317 3.172532 0.000000 0.000000 0.000000 0.000000 0.000000 0.000000 -2.225452 -2.139754 3.353372 -4.312742 16.256598 2.263037 -1.323577 17.025312 -2.023879 0.000000 0.000000 0.000000 -2.225452 -2.139754 3.353372 0.793943 3.860551 -12.834928 0.000000 0.000000 0.000000 -2.590063 -10.725964 -59.685308 6.796635 -15.986954 -5.978540 0.000000 0.000000 0.000000 -2.225452 -2.139754 3.353372 0.708322 1.125617 15.555421 0.000000 0.000000 0.000000 16.276305 26.099169 45.427653 15.667827 24.549508 -6.236638 0.000000 0.000000 0.000000 
-1.805903 97.506721 6.200237 0.000000 0.000000 0.000000 172.732411 -53.248264 169.562520 -9.120782 10.065056 24.382833 27.537381 27.463002 2.545760 2.721014 4.614795 -31.697767 -11.352060 0.232320 -2.118702 0.000000 0.000000 0.000000 172.732411 -53.248264 169.562520 -31.523396 -23.682055 -11.592369 25.470486 -8.829878 0.170302 0.783860 1.910557 4.252813 -0.291578 -10.385473 5.745137 0.000000 0.000000 0.000000 172.732411 -53.248264 169.562520 11.165590 -1.361620 0.867183 -2.184792 -2.521676 2.559259 0.000000 0.000000 0.000000 0.000000 0.000000 0.000000 -2.144788 -2.198684 2.749639 -4.958437 12.324798 3.200035 -1.001341 13.447496 -1.793006 0.000000 0.000000 0.000000 -2.144788 -2.198684 2.749639 0.681287 3.502403 -11.167994 0.000000 0.000000 0.000000 -2.297072 -10.737608 -61.310387 5.153907 -14.651656 -6.270497 0.000000 0.000000 0.000000 -2.144788 -2.198684 2.749639 0.766242 0.445100 16.434291 0.000000 0.000000 0.000000 15.582537 26.635755 45.617126 14.845662 25.297042 -6.336997 0.000000 0.000000 0.000000 
-1.568225 97.151848 2.857796 0.000000 0.000000 0.000000 174.115524 -49.752771 170.629628 -10.435968 9.292236 26.998800 32.433526 29.060276 2.642630 5.762011 1.852624 -32.712819 -13.948273 1.815168 -6.720347 0.000000 0.000000 0.000000 174.115524 -49.752771 170.629628 -30.936020 -22.914494 -8.912817 27.966134 -7.013610 0.270832 -1.268854 1.866887 2.910730 -1.111279 -10.238339 3.306285 0.000000 0.000000 0.000000 174.115524 -49.752771 170.629628 11.609235 -1.533198 1.146006 -2.160636 -2.728501 2.375055 0.000000 0.000000 0.000000 0.000000 0.000000 0.000000 -2.119563 -2.394222 2.586981 -4.566212 9.080877 3.402142 -1.475147 10.150650 -0.788310 0.000000 0.000000 0.000000 -2.119563 -2.394222 2.586981 0.616035 3.362024 -10.121747 0.000000 0.000000 0.000000 -0.446457 -12.343771 -62.399372 2.775080 -14.128409 -6.587203 0.000000 0.000000 0.000000 -2.119563 -2.394222 2.586981 0.775132 0.477996 16.844442 0.000000 0.000000 0.000000 15.144358 26.393555 45.879275 14.868234 26.329966 -6.676931 0.000000 0.000000 0.000000 
-1.371897 96.861870 -0.560246 0.000000 0.000000 0.000000 175.325164 -45.834968 171.942868 -13.667546 6.353784 27.227610 40.504316 29.475213 2.694930 4.342468 -0.508618 -26.785143 -9.750191 6.090320 -14.409717 0.000000 0.000000 0.000000 175.325164 -45.834968 171.942868 -30.322649 -21.216596 -6.391840 30.610691 -5.217181 0.406204 -3.868274 1.495654 1.531804 -1.084796 -10.053857 2.977854 0.000000 0.000000 0.000000 175.325164 -45.834968 171.942868 12.022332 -1.685482 0.562594 -2.351951 -2.866233 2.499394 0.000000 0.000000 0.000000 0.000000 0.000000 0.000000 -2.294731 -2.503710 2.730776 -3.266954 5.934449 3.100529 -1.771145 6.793141 0.015742 0.000000 0.000000 0.000000 -2.294731 -2.503710 2.730776 0.636047 3.559033 -10.423446 0.000000 0.000000 0.000000 0.865305 -10.035155 -62.360037 5.980790 -15.224084 -6.819158 0.000000 0.000000 0.000000 -2.294731 -2.503710 2.730776 0.783947 -0.163234 16.607687 0.000000 0.000000 0.000000 16.005032 28.907205 45.018299 14.671854 25.924915 -6.468444 0.000000 0.000000 0.000000 
